<svg xmlns="http://www.w3.org/2000/svg" viewBox="0 0 1000 400" width="100%" height="100%" class="campaign-wordmark" aria-label="Trottier Bethune '64 Logo">
    <defs>
        <style>
            .text-main { font-family: 'Anton', sans-serif; fill: var(--text-light); font-size: 160px; letter-spacing: 12px; }
            .text-shadow { font-family: 'Anton', sans-serif; fill: var(--crimson); font-size: 160px; letter-spacing: 12px; opacity: 0.6; }
            .text-sub { font-family: 'Anton', sans-serif; fill: var(--text-muted); font-size: 110px; letter-spacing: 18px; }
            .year { font-family: 'Anton', sans-serif; fill: var(--obsidian); font-size: 110px; letter-spacing: 4px; }
            .logo-crimson { fill: var(--crimson); }
            .steel-stroke { stroke: var(--steel); stroke-width: 5; fill: none; }
            .crimson-stroke { stroke: var(--crimson); stroke-width: 2; fill: none; }
            .grid-line { stroke: var(--steel); stroke-width: 1; opacity: 0.5; }
        </style>
    </defs>

    <!-- Subtle Background Grid for "Tech" feel -->
    <line x1="0" y1="200" x2="1000" y2="200" class="grid-line" />
    <line x1="500" y1="0" x2="500" y2="400" class="grid-line" />

    <!-- Corner Brackets -->
    <path d="M 40,80 L 40,40 L 80,40" class="steel-stroke"/>
    <path d="M 960,80 L 960,40 L 920,40" class="steel-stroke"/>
    <path d="M 40,320 L 40,360 L 80,360" class="steel-stroke"/>
    <path d="M 960,320 L 960,360 L 920,360" class="steel-stroke"/>

    <!-- TROTTIER with offset drop shadow effect for aggression -->
    <text x="500" y="175" class="text-shadow" text-anchor="middle" transform="translate(5, 5)">TROTTIER</text>
    <text x="500" y="175" class="text-main" text-anchor="middle">TROTTIER</text>

    <!-- Futuristic fragmented divider bar -->
    <rect x="70" y="200" width="620" height="24" class="logo-crimson"/>
    <rect x="700" y="200" width="20" height="24" class="logo-crimson"/>
    <rect x="730" y="200" width="200" height="24" class="logo-crimson"/>

    <!-- BETHUNE -->
    <text x="70" y="335" class="text-sub" text-anchor="start">BETHUNE</text>

    <!-- 64 Element: Angled Parallelogram -->
    <polygon points="730,235 930,235 910,350 710,350" class="logo-crimson"/>
    
    <!-- 64 Text -->
    <text x="820" y="335" class="year" text-anchor="middle">'64</text>

    <!-- Bottom accents -->
    <line x1="70" y1="360" x2="300" y2="360" class="crimson-stroke"/>
    <circle cx="70" cy="360" r="4" class="logo-crimson"/>
    <circle cx="300" cy="360" r="4" class="logo-crimson"/>
</svg>
